# Exported from Wings 3D 2.1.7
# mtllib iii.mtl
#o sphere1
#114 vertices, 224 faces
v 0.38268343 0.92387953 0.0000000e+0
v 0.35355339 0.92387953 0.14644661
v 0.27059805 0.92387953 0.27059805
v 0.14644661 0.92387953 0.35355339
v 2.3432602e-17 0.92387953 0.38268343
v -0.14644661 0.92387953 0.35355339
v -0.27059805 0.92387953 0.27059805
v -0.35355339 0.92387953 0.14644661
v -0.38268343 0.92387953 4.6865204e-17
v -0.35355339 0.92387953 -0.14644661
v -0.27059805 0.92387953 -0.27059805
v -0.14644661 0.92387953 -0.35355339
v -7.0297806e-17 0.92387953 -0.38268343
v 0.14644661 0.92387953 -0.35355339
v 0.27059805 0.92387953 -0.27059805
v 0.35355339 0.92387953 -0.14644661
v 0.70710678 0.70710678 0.0000000e+0
v 0.65328148 0.70710678 0.27059805
v 0.50000000 0.70710678 0.50000000
v 0.27059805 0.70710678 0.65328148
v 4.3297803e-17 0.70710678 0.70710678
v -0.27059805 0.70710678 0.65328148
v -0.50000000 0.70710678 0.50000000
v -0.65328148 0.70710678 0.27059805
v -0.70710678 0.70710678 8.6595606e-17
v -0.65328148 0.70710678 -0.27059805
v -0.50000000 0.70710678 -0.50000000
v -0.27059805 0.70710678 -0.65328148
v -1.2989341e-16 0.70710678 -0.70710678
v 0.27059805 0.70710678 -0.65328148
v 0.50000000 0.70710678 -0.50000000
v 0.65328148 0.70710678 -0.27059805
v 0.92387953 0.38268343 0.0000000e+0
v 0.85355339 0.38268343 0.35355339
v 0.65328148 0.38268343 0.65328148
v 0.35355339 0.38268343 0.85355339
v 5.6571306e-17 0.38268343 0.92387953
v -0.35355339 0.38268343 0.85355339
v -0.65328148 0.38268343 0.65328148
v -0.85355339 0.38268343 0.35355339
v -0.92387953 0.38268343 1.1314261e-16
v -0.85355339 0.38268343 -0.35355339
v -0.65328148 0.38268343 -0.65328148
v -0.35355339 0.38268343 -0.85355339
v -1.6971392e-16 0.38268343 -0.92387953
v 0.35355339 0.38268343 -0.85355339
v 0.65328148 0.38268343 -0.65328148
v 0.85355339 0.38268343 -0.35355339
v 1.00000000 6.1232340e-17 0.0000000e+0
v 0.92387953 6.1232340e-17 0.38268343
v 0.70710678 6.1232340e-17 0.70710678
v 0.38268343 6.1232340e-17 0.92387953
v 6.1232340e-17 6.1232340e-17 1.00000000
v -0.38268343 6.1232340e-17 0.92387953
v -0.70710678 6.1232340e-17 0.70710678
v -0.92387953 6.1232340e-17 0.38268343
v -1.00000000 6.1232340e-17 1.2246468e-16
v -0.92387953 6.1232340e-17 -0.38268343
v -0.70710678 6.1232340e-17 -0.70710678
v -0.38268343 6.1232340e-17 -0.92387953
v -1.8369702e-16 6.1232340e-17 -1.00000000
v 0.38268343 6.1232340e-17 -0.92387953
v 0.70710678 6.1232340e-17 -0.70710678
v 0.92387953 6.1232340e-17 -0.38268343
v 0.92387953 -0.38268343 0.0000000e+0
v 0.85355339 -0.38268343 0.35355339
v 0.65328148 -0.38268343 0.65328148
v 0.35355339 -0.38268343 0.85355339
v 5.6571306e-17 -0.38268343 0.92387953
v -0.35355339 -0.38268343 0.85355339
v -0.65328148 -0.38268343 0.65328148
v -0.85355339 -0.38268343 0.35355339
v -0.92387953 -0.38268343 1.1314261e-16
v -0.85355339 -0.38268343 -0.35355339
v -0.65328148 -0.38268343 -0.65328148
v -0.35355339 -0.38268343 -0.85355339
v -1.6971392e-16 -0.38268343 -0.92387953
v 0.35355339 -0.38268343 -0.85355339
v 0.65328148 -0.38268343 -0.65328148
v 0.85355339 -0.38268343 -0.35355339
v 0.70710678 -0.70710678 0.0000000e+0
v 0.65328148 -0.70710678 0.27059805
v 0.50000000 -0.70710678 0.50000000
v 0.27059805 -0.70710678 0.65328148
v 4.3297803e-17 -0.70710678 0.70710678
v -0.27059805 -0.70710678 0.65328148
v -0.50000000 -0.70710678 0.50000000
v -0.65328148 -0.70710678 0.27059805
v -0.70710678 -0.70710678 8.6595606e-17
v -0.65328148 -0.70710678 -0.27059805
v -0.50000000 -0.70710678 -0.50000000
v -0.27059805 -0.70710678 -0.65328148
v -1.2989341e-16 -0.70710678 -0.70710678
v 0.27059805 -0.70710678 -0.65328148
v 0.50000000 -0.70710678 -0.50000000
v 0.65328148 -0.70710678 -0.27059805
v 0.38268343 -0.92387953 0.0000000e+0
v 0.35355339 -0.92387953 0.14644661
v 0.27059805 -0.92387953 0.27059805
v 0.14644661 -0.92387953 0.35355339
v 2.3432602e-17 -0.92387953 0.38268343
v -0.14644661 -0.92387953 0.35355339
v -0.27059805 -0.92387953 0.27059805
v -0.35355339 -0.92387953 0.14644661
v -0.38268343 -0.92387953 4.6865204e-17
v -0.35355339 -0.92387953 -0.14644661
v -0.27059805 -0.92387953 -0.27059805
v -0.14644661 -0.92387953 -0.35355339
v -7.0297806e-17 -0.92387953 -0.38268343
v 0.14644661 -0.92387953 -0.35355339
v 0.27059805 -0.92387953 -0.27059805
v 0.35355339 -0.92387953 -0.14644661
v 0.0000000e+0 1.00000000 0.0000000e+0
v 0.0000000e+0 -1.00000000 0.0000000e+0
vt 0.0000000e+0 0.24709132
vt 3.5662040e-3 0.34035941
vt 2.6682023e-2 0.15765016
vt 3.8893528e-2 0.43073639
vt 7.8812410e-2 0.32929674
vt 7.9752520e-2 0.25718137
vt 8.3404392e-2 7.8919020e-2
vt 9.5600187e-2 0.40423285
vt 9.6802187e-2 0.18710413
vt 0.10876228 0.50880121
vt 0.13172365 0.11871012
vt 0.13615457 0.48186660
vt 0.14007432 0.32580351
vt 0.14339580 0.26523333
vt 0.14616006 0.39101086
vt 0.15526383 0.20574442
vt 0.16623546 0.46559635
vt 0.17051351 2.0714567e-2
vt 0.17739754 0.14410731
vt 0.19033472 5.3622476e-2
vt 0.19235624 0.38658851
vt 0.19353303 0.32688462
vt 0.19693169 0.45814677
vt 0.19856290 0.27221290
vt 0.20730737 0.21801114
vt 0.21473712 0.55744113
vt 0.21541573 7.6871649e-2
vt 0.22103677 0.15989536
vt 0.22727683 0.45832626
vt 0.23605777 0.38892109
vt 0.24328946 9.1731317e-2
vt 0.24332923 0.33144683
vt 0.25000000 0.27872056
vt 0.25667077 0.22599430
vt 0.25671054 0.46570981
vt 0.26394223 0.16852004
vt 0.27272317 9.9114865e-2
vt 0.27896323 0.39754576
vt 0.28458427 0.48056948
vt 0.28526288 0.0000000e+0
vt 0.29269263 0.33942999
vt 0.30143710 0.28522823
vt 0.30306831 9.9294356e-2
vt 0.30646697 0.23055651
vt 0.30764376 0.17085262
vt 0.30966528 0.50381865
vt 0.32260246 0.41333382
vt 0.32948649 0.53672656
vt 0.33376454 9.1844781e-2
vt 0.34473617 0.35169671
vt 0.35383994 0.16643027
vt 0.35660420 0.29220780
vt 0.35992568 0.23163761
vt 0.36384543 7.5574524e-2
vt 0.36827635 0.43873101
vt 0.39123772 4.8639923e-2
vt 0.40319781 0.37033700
vt 0.40439981 0.15320828
vt 0.41659561 0.47852211
vt 0.42024748 0.30025976
vt 0.42118759 0.22814439
vt 0.46110647 0.12670474
vt 0.47331798 0.39979097
vt 0.49643380 0.21708172
vt 0.50000000 0.31034980
vt 0.50000000 0.31034980
vt 0.50356620 0.21708172
vt 0.52668202 0.39979097
vt 0.53889353 0.12670474
vt 0.57881241 0.22814439
vt 0.57975252 0.30025976
vt 0.58340439 0.47852211
vt 0.59560019 0.15320828
vt 0.59680219 0.37033700
vt 0.60876228 4.8639923e-2
vt 0.63172365 0.43873101
vt 0.63615457 7.5574524e-2
vt 0.64007432 0.23163761
vt 0.64339580 0.29220780
vt 0.64616006 0.16643027
vt 0.65526383 0.35169671
vt 0.66623546 9.1844781e-2
vt 0.67051351 0.53672656
vt 0.67739754 0.41333382
vt 0.69033472 0.50381865
vt 0.69235624 0.17085262
vt 0.69353303 0.23055651
vt 0.69693169 9.9294356e-2
vt 0.69856290 0.28522823
vt 0.70730737 0.33942999
vt 0.71473712 0.0000000e+0
vt 0.71541573 0.48056948
vt 0.72103677 0.39754576
vt 0.72727683 9.9114865e-2
vt 0.73605777 0.16852004
vt 0.74328946 0.46570981
vt 0.74332923 0.22599430
vt 0.75000000 0.27872056
vt 0.75667077 0.33144683
vt 0.75671054 9.1731317e-2
vt 0.76394223 0.38892109
vt 0.77272317 0.45832626
vt 0.77896323 0.15989536
vt 0.78458427 7.6871649e-2
vt 0.78526288 0.55744113
vt 0.79269263 0.21801114
vt 0.80143710 0.27221290
vt 0.80306831 0.45814677
vt 0.80646697 0.32688462
vt 0.80764376 0.38658851
vt 0.80966528 5.3622476e-2
vt 0.82260246 0.14410731
vt 0.82948649 2.0714567e-2
vt 0.83376454 0.46559635
vt 0.84473617 0.20574442
vt 0.85383994 0.39101086
vt 0.85660420 0.26523333
vt 0.85992568 0.32580351
vt 0.86384543 0.48186660
vt 0.86827635 0.11871012
vt 0.89123772 0.50880121
vt 0.90319781 0.18710413
vt 0.90439981 0.40423285
vt 0.91659561 7.8919020e-2
vt 0.92024748 0.25718137
vt 0.92118759 0.32929674
vt 0.96110647 0.43073639
vt 0.97331798 0.15765016
vt 0.99643380 0.34035941
vt 1.00000000 0.24709132
vn 0.44254783 0.89674490 -8.0352547e-17
vn 0.35310199 0.92408176 0.14625963
vn 0.31292857 0.89674490 0.31292857
vn 0.14625963 0.92408176 0.35310199
vn 2.3633102e-18 0.89674490 0.44254783
vn -0.14625963 0.92408176 0.35310199
vn -0.31292857 0.89674490 0.31292857
vn -0.35310199 0.92408176 0.14625963
vn -0.44254783 0.89674490 2.1269792e-17
vn -0.35310199 0.92408176 -0.14625963
vn -0.31292857 0.89674490 -0.31292857
vn -0.14625963 0.92408176 -0.35310199
vn -3.7812963e-17 0.89674490 -0.44254783
vn 0.14625963 0.92408176 -0.35310199
vn 0.31292857 0.89674490 -0.31292857
vn 0.35310199 0.92408176 -0.14625963
vn 0.70658450 0.70762868 1.3574215e-16
vn 0.65279895 0.70762868 0.27039818
vn 0.49963069 0.70762868 0.49963069
vn 0.27039818 0.70762868 0.65279895
vn 7.1443235e-18 0.70762868 0.70658450
vn -0.27039818 0.70762868 0.65279895
vn -0.49963069 0.70762868 0.49963069
vn -0.65279895 0.70762868 0.27039818
vn -0.70658450 0.70762868 1.4288647e-17
vn -0.65279895 0.70762868 -0.27039818
vn -0.49963069 0.70762868 -0.49963069
vn -0.27039818 0.70762868 -0.65279895
vn 1.4288647e-17 0.70762868 -0.70658450
vn 0.27039818 0.70762868 -0.65279895
vn 0.49963069 0.70762868 -0.49963069
vn 0.65279895 0.70762868 -0.27039818
vn 0.92368212 0.38315969 -8.6274346e-17
vn 0.85337100 0.38315969 0.35347784
vn 0.65314189 0.38315969 0.65314189
vn 0.35347784 0.38315969 0.85337100
vn 1.0784293e-17 0.38315969 0.92368212
vn -0.35347784 0.38315969 0.85337100
vn -0.65314189 0.38315969 0.65314189
vn -0.85337100 0.38315969 0.35347784
vn -0.92368212 0.38315969 7.1895288e-18
vn -0.85337100 0.38315969 -0.35347784
vn -0.65314189 0.38315969 -0.65314189
vn -0.35347784 0.38315969 -0.85337100
vn -4.3137173e-17 0.38315969 -0.92368212
vn 0.35347784 0.38315969 -0.85337100
vn 0.65314189 0.38315969 -0.65314189
vn 0.85337100 0.38315969 -0.35347784
vn 1.00000000 0.0000000e+0 -1.0812319e-16
vn 0.92387953 -1.8020531e-17 0.38268343
vn 0.70710678 0.0000000e+0 0.70710678
vn 0.38268343 3.6041063e-17 0.92387953
vn 0.0000000e+0 7.2082126e-18 1.00000000
vn -0.38268343 1.8020531e-17 0.92387953
vn -0.70710678 1.4416425e-17 0.70710678
vn -0.92387953 0.0000000e+0 0.38268343
vn -1.00000000 0.0000000e+0 7.2082126e-18
vn -0.92387953 -5.0457488e-17 -0.38268343
vn -0.70710678 -9.3706763e-17 -0.70710678
vn -0.38268343 -1.4416425e-17 -0.92387953
vn -3.6761884e-16 7.2082126e-18 -1.00000000
vn 0.38268343 1.0812319e-17 -0.92387953
vn 0.70710678 -1.4416425e-17 -0.70710678
vn 0.92387953 -6.1269807e-17 -0.38268343
vn 0.92368212 -0.38315969 -1.4019581e-16
vn 0.85337100 -0.38315969 0.35347784
vn 0.65314189 -0.38315969 0.65314189
vn 0.35347784 -0.38315969 0.85337100
vn 7.1895288e-18 -0.38315969 0.92368212
vn -0.35347784 -0.38315969 0.85337100
vn -0.65314189 -0.38315969 0.65314189
vn -0.85337100 -0.38315969 0.35347784
vn -0.92368212 -0.38315969 2.8758115e-17
vn -0.85337100 -0.38315969 -0.35347784
vn -0.65314189 -0.38315969 -0.65314189
vn -0.35347784 -0.38315969 -0.85337100
vn 7.1895288e-18 -0.38315969 -0.92368212
vn 0.35347784 -0.38315969 -0.85337100
vn 0.65314189 -0.38315969 -0.65314189
vn 0.85337100 -0.38315969 -0.35347784
vn 0.70658450 -0.70762868 -5.7154588e-17
vn 0.65279895 -0.70762868 0.27039818
vn 0.49963069 -0.70762868 0.49963069
vn 0.27039818 -0.70762868 0.65279895
vn 1.4288647e-17 -0.70762868 0.70658450
vn -0.27039818 -0.70762868 0.65279895
vn -0.49963069 -0.70762868 0.49963069
vn -0.65279895 -0.70762868 0.27039818
vn -0.70658450 -0.70762868 7.1443235e-18
vn -0.65279895 -0.70762868 -0.27039818
vn -0.49963069 -0.70762868 -0.49963069
vn -0.27039818 -0.70762868 -0.65279895
vn 3.5721617e-18 -0.70762868 -0.70658450
vn 0.27039818 -0.70762868 -0.65279895
vn 0.49963069 -0.70762868 -0.49963069
vn 0.65279895 -0.70762868 -0.27039818
vn 0.44254783 -0.89674490 1.5834178e-16
vn 0.35310199 -0.92408176 0.14625963
vn 0.31292857 -0.89674490 0.31292857
vn 0.14625963 -0.92408176 0.35310199
vn 1.6543171e-17 -0.89674490 0.44254783
vn -0.14625963 -0.92408176 0.35310199
vn -0.31292857 -0.89674490 0.31292857
vn -0.35310199 -0.92408176 0.14625963
vn -0.44254783 -0.89674490 1.6543171e-17
vn -0.35310199 -0.92408176 -0.14625963
vn -0.31292857 -0.89674490 -0.31292857
vn -0.14625963 -0.92408176 -0.35310199
vn -1.9142813e-16 -0.89674490 -0.44254783
vn 0.14625963 -0.92408176 -0.35310199
vn 0.31292857 -0.89674490 -0.31292857
vn 0.35310199 -0.92408176 -0.14625963
vn -1.4160320e-17 1.00000000 -4.3365979e-17
vn -3.5400799e-18 -1.00000000 -5.9296339e-17
g sphere1_sphere1_auv
usemtl sphere1_auv
s 1
f 1/92/1 18/76/18 17/84/17
f 1/92/1 32/93/32 16/96/16
f 1/92/1 113/105/113 2/85/2
f 2/85/2 18/76/18 1/92/1
f 2/85/2 113/105/113 3/83/3
f 3/83/3 18/76/18 2/85/2
f 3/48/3 20/55/20 19/59/19
f 3/48/3 113/26/113 4/46/4
f 4/46/4 20/55/20 3/48/3
f 4/46/4 113/26/113 5/39/5
f 5/39/5 20/55/20 4/46/4
f 5/39/5 22/38/22 21/47/21
f 5/39/5 113/26/113 6/35/6
f 6/35/6 22/38/22 5/39/5
f 6/35/6 113/26/113 7/29/7
f 7/29/7 22/38/22 6/35/6
f 7/29/7 24/21/24 23/30/23
f 7/29/7 113/26/113 8/23/8
f 8/23/8 24/21/24 7/29/7
f 8/23/8 113/26/113 9/17/9
f 9/17/9 24/21/24 8/23/8
f 9/17/9 26/8/26 25/15/25
f 9/17/9 113/26/113 10/12/10
f 10/12/10 26/8/26 9/17/9
f 10/12/10 113/26/113 11/10/11
f 11/10/11 26/8/26 10/12/10
f 11/121/11 28/123/28 27/127/27
f 11/121/11 113/105/113 12/119/12
f 12/119/12 28/123/28 11/121/11
f 12/119/12 113/105/113 13/114/13
f 13/114/13 28/123/28 12/119/12
f 13/114/13 30/110/30 29/116/29
f 13/114/13 113/105/113 14/108/14
f 14/108/14 30/110/30 13/114/13
f 14/108/14 113/105/113 15/102/15
f 15/102/15 30/110/30 14/108/14
f 15/102/15 32/93/32 31/101/31
f 15/102/15 113/105/113 16/96/16
f 16/96/16 32/93/32 15/102/15
f 16/96/16 113/105/113 1/92/1
f 17/84/17 32/93/32 1/92/1
f 17/84/17 33/81/33 32/93/32
f 18/76/18 33/81/33 17/84/17
f 18/76/18 35/68/35 34/74/34
f 19/72/19 18/76/18 3/83/3
f 19/72/19 35/68/35 18/76/18
f 20/55/20 35/63/35 19/59/19
f 20/55/20 37/50/37 36/57/36
f 21/47/21 20/55/20 5/39/5
f 21/47/21 37/50/37 20/55/20
f 22/38/22 37/50/37 21/47/21
f 22/38/22 39/32/39 38/41/38
f 23/30/23 22/38/22 7/29/7
f 23/30/23 39/32/39 22/38/22
f 24/21/24 39/32/39 23/30/23
f 24/21/24 41/13/41 40/22/40
f 25/15/25 24/21/24 9/17/9
f 25/15/25 41/13/41 24/21/24
f 26/8/26 41/13/41 25/15/25
f 26/8/26 43/2/43 42/5/42
f 27/4/27 26/8/26 11/10/11
f 27/4/27 43/2/43 26/8/26
f 28/123/28 43/129/43 27/127/27
f 28/123/28 45/118/45 44/126/44
f 29/116/29 28/123/28 13/114/13
f 29/116/29 45/118/45 28/123/28
f 30/110/30 45/118/45 29/116/29
f 30/110/30 47/99/47 46/109/46
f 31/101/31 30/110/30 15/102/15
f 31/101/31 47/99/47 30/110/30
f 32/93/32 33/81/33 48/90/48
f 32/93/32 47/99/47 31/101/31
f 33/81/33 50/71/50 49/79/49
f 33/81/33 64/89/64 48/90/48
f 34/74/34 33/81/33 18/76/18
f 34/74/34 50/71/50 33/81/33
f 35/68/35 50/71/50 34/74/34
f 35/63/35 52/60/52 51/66/51
f 36/57/36 35/63/35 20/55/20
f 36/57/36 52/60/52 35/63/35
f 37/50/37 52/60/52 36/57/36
f 37/50/37 54/42/54 53/52/53
f 38/41/38 37/50/37 22/38/22
f 38/41/38 54/42/54 37/50/37
f 39/32/39 54/42/54 38/41/38
f 39/32/39 56/24/56 55/33/55
f 40/22/40 39/32/39 24/21/24
f 40/22/40 56/24/56 39/32/39
f 41/13/41 56/24/56 40/22/40
f 41/13/41 58/6/58 57/14/57
f 42/5/42 41/13/41 26/8/26
f 42/5/42 58/6/58 41/13/41
f 43/2/43 58/6/58 42/5/42
f 43/129/43 60/125/60 59/130/59
f 44/126/44 43/129/43 28/123/28
f 44/126/44 60/125/60 43/129/43
f 45/118/45 60/125/60 44/126/44
f 45/118/45 62/107/62 61/117/61
f 46/109/46 45/118/45 30/110/30
f 46/109/46 62/107/62 45/118/45
f 47/99/47 62/107/62 46/109/46
f 47/99/47 64/89/64 63/98/63
f 48/90/48 47/99/47 32/93/32
f 48/90/48 64/89/64 47/99/47
f 49/79/49 64/89/64 33/81/33
f 49/79/49 65/78/65 64/89/64
f 50/71/50 65/78/65 49/79/49
f 50/71/50 67/67/67 66/70/66
f 51/65/51 50/71/50 35/68/35
f 51/65/51 67/67/67 50/71/50
f 52/60/52 67/64/67 51/66/51
f 52/60/52 69/53/69 68/61/68
f 53/52/53 52/60/52 37/50/37
f 53/52/53 69/53/69 52/60/52
f 54/42/54 69/53/69 53/52/53
f 54/42/54 71/34/71 70/44/70
f 55/33/55 54/42/54 39/32/39
f 55/33/55 71/34/71 54/42/54
f 56/24/56 71/34/71 55/33/55
f 56/24/56 73/16/73 72/25/72
f 57/14/57 56/24/56 41/13/41
f 57/14/57 73/16/73 56/24/56
f 58/6/58 73/16/73 57/14/57
f 58/6/58 75/3/75 74/9/74
f 59/1/59 58/6/58 43/2/43
f 59/1/59 75/3/75 58/6/58
f 60/125/60 75/128/75 59/130/59
f 60/125/60 77/115/77 76/122/76
f 61/117/61 60/125/60 45/118/45
f 61/117/61 77/115/77 60/125/60
f 62/107/62 77/115/77 61/117/61
f 62/107/62 79/97/79 78/106/78
f 63/98/63 62/107/62 47/99/47
f 63/98/63 79/97/79 62/107/62
f 64/89/64 65/78/65 80/87/80
f 64/89/64 79/97/79 63/98/63
f 65/78/65 82/73/82 81/80/81
f 65/78/65 96/86/96 80/87/80
f 66/70/66 65/78/65 50/71/50
f 66/70/66 82/73/82 65/78/65
f 67/67/67 82/73/82 66/70/66
f 67/64/67 84/58/84 83/62/83
f 68/61/68 67/64/67 52/60/52
f 68/61/68 84/58/84 67/64/67
f 69/53/69 84/58/84 68/61/68
f 69/53/69 86/45/86 85/51/85
f 70/44/70 69/53/69 54/42/54
f 70/44/70 86/45/86 69/53/69
f 71/34/71 86/45/86 70/44/70
f 71/34/71 88/28/88 87/36/87
f 72/25/72 71/34/71 56/24/56
f 72/25/72 88/28/88 71/34/71
f 73/16/73 88/28/88 72/25/72
f 73/16/73 90/11/90 89/19/89
f 74/9/74 73/16/73 58/6/58
f 74/9/74 90/11/90 73/16/73
f 75/3/75 90/11/90 74/9/74
f 75/128/75 92/120/92 91/124/91
f 76/122/76 75/128/75 60/125/60
f 76/122/76 92/120/92 75/128/75
f 77/115/77 92/120/92 76/122/76
f 77/115/77 94/103/94 93/112/93
f 78/106/78 77/115/77 62/107/62
f 78/106/78 94/103/94 77/115/77
f 79/97/79 94/103/94 78/106/78
f 79/97/79 96/86/96 95/95/95
f 80/87/80 79/97/79 64/89/64
f 80/87/80 96/86/96 79/97/79
f 81/80/81 96/86/96 65/78/65
f 81/80/81 97/82/97 96/86/96
f 82/73/82 97/82/97 81/80/81
f 82/73/82 99/75/99 98/77/98
f 83/69/83 82/73/82 67/67/67
f 83/69/83 99/75/99 82/73/82
f 84/58/84 99/56/99 83/62/83
f 84/58/84 101/49/101 100/54/100
f 85/51/85 84/58/84 69/53/69
f 85/51/85 101/49/101 84/58/84
f 86/45/86 101/49/101 85/51/85
f 86/45/86 103/37/103 102/43/102
f 87/36/87 86/45/86 71/34/71
f 87/36/87 103/37/103 86/45/86
f 88/28/88 103/37/103 87/36/87
f 88/28/88 105/27/105 104/31/104
f 89/19/89 88/28/88 73/16/73
f 89/19/89 105/27/105 88/28/88
f 90/11/90 105/27/105 89/19/89
f 90/11/90 107/18/107 106/20/106
f 91/7/91 90/11/90 75/3/75
f 91/7/91 107/18/107 90/11/90
f 92/120/92 107/113/107 91/124/91
f 92/120/92 109/104/109 108/111/108
f 93/112/93 92/120/92 77/115/77
f 93/112/93 109/104/109 92/120/92
f 94/103/94 109/104/109 93/112/93
f 94/103/94 111/94/111 110/100/110
f 95/95/95 94/103/94 79/97/79
f 95/95/95 111/94/111 94/103/94
f 96/86/96 97/82/97 112/88/112
f 96/86/96 111/94/111 95/95/95
f 97/82/97 114/91/114 112/88/112
f 98/77/98 97/82/97 82/73/82
f 98/77/98 114/91/114 97/82/97
f 99/75/99 114/91/114 98/77/98
f 100/54/100 99/56/99 84/58/84
f 100/54/100 114/40/114 99/56/99
f 101/49/101 114/40/114 100/54/100
f 102/43/102 101/49/101 86/45/86
f 102/43/102 114/40/114 101/49/101
f 103/37/103 114/40/114 102/43/102
f 104/31/104 103/37/103 88/28/88
f 104/31/104 114/40/114 103/37/103
f 105/27/105 114/40/114 104/31/104
f 106/20/106 105/27/105 90/11/90
f 106/20/106 114/40/114 105/27/105
f 107/18/107 114/40/114 106/20/106
f 108/111/108 107/113/107 92/120/92
f 108/111/108 114/91/114 107/113/107
f 109/104/109 114/91/114 108/111/108
f 110/100/110 109/104/109 94/103/94
f 110/100/110 114/91/114 109/104/109
f 111/94/111 114/91/114 110/100/110
f 112/88/112 111/94/111 96/86/96
f 112/88/112 114/91/114 111/94/111
